<svg width="60" height="59" viewBox="0 0 60 59" fill="none" xmlns="http://www.w3.org/2000/svg">
<path d="M7.82241 0.364875C5.20524 2.0635 0.0489053 8.5386 0 10.2367V13.0475C0 16.6105 3.0468 19.7421 5.81313 19.7421C9.13478 19.7421 11.9023 16.7329 11.9026 13.1614C11.9026 16.7329 14.5753 19.7421 17.8972 19.7421C21.2193 19.7421 23.8061 16.7329 23.8061 13.1614C23.8061 16.7329 26.648 19.7421 29.9699 19.7421H30.0301C33.3522 19.7421 36.1941 16.7329 36.1941 13.1614C36.1941 16.7329 38.7812 19.7421 42.1028 19.7421C45.4247 19.7421 48.0974 16.7329 48.0974 13.1614C48.0974 16.7329 50.8655 19.7421 54.1869 19.7421C56.9532 19.7421 60 16.611 60 13.0475V10.2367C59.9511 8.53833 54.7948 2.06297 52.1781 0.364875C44.0437 0.05268 38.4044 -0.00131258 29.9998 2.3865e-05C21.5954 0.000825735 10.1373 0.14436 7.82192 0.364875H7.82241ZM23.7641 18.064C23.4465 18.6692 23.053 19.223 22.5952 19.7092C21.3413 21.0494 19.6225 21.8801 17.7277 21.8801C15.9043 21.882 14.153 21.1022 12.8499 19.7081C12.3955 19.2216 12.0503 18.7015 11.7341 18.0958L11.7326 18.0969C11.4167 18.7036 10.9766 19.2235 10.5212 19.7105C9.2176 21.1035 7.46649 21.8827 5.64343 21.8809C5.41504 21.8809 5.17736 21.812 4.98517 21.7398C4.71814 24.7794 4.60542 27.6843 4.56556 29.8023L4.56507 29.8143C4.56018 30.8899 4.55529 31.7744 4.5504 33.0031C4.60175 39.3807 3.97258 53.6737 7.12282 57.1856C12.0045 58.4299 20.9875 58.9965 29.9995 59H30.001C39.0128 58.9965 47.9957 58.4299 52.8774 57.1856C56.0277 53.6734 55.3985 39.3804 55.4499 33.0028C55.4445 31.7744 55.4401 30.8899 55.4352 29.8141L55.4344 29.8021C55.3948 27.6835 55.2821 24.7789 55.0151 21.7393C54.8229 21.8114 54.5854 21.8804 54.3568 21.8804C52.5338 21.8822 50.7826 21.103 49.479 19.71C49.0237 19.223 48.5835 18.7034 48.2674 18.0964L48.2659 18.0953C47.9495 18.701 47.6045 19.2214 47.1501 19.7076C45.847 21.1015 44.0958 21.8812 42.2725 21.8793C40.378 21.8793 38.6589 21.048 37.405 19.7081C36.9472 19.2219 36.5538 18.6682 36.2362 18.0629C35.922 18.6675 35.5322 19.2212 35.0781 19.7081C33.7746 21.1019 32.0232 21.8815 30.1998 21.8796C30.1338 21.8796 30.0677 21.8764 30.0017 21.8742H30C29.934 21.8764 29.868 21.8796 29.8012 21.8796C27.9778 21.8816 26.2264 21.1021 24.9229 19.7084C24.4688 19.2215 24.079 18.6678 23.7648 18.0632L23.7641 18.064ZM18.7547 25.1445L18.7542 25.1472H18.7579C20.7417 25.1517 22.504 25.1472 24.6877 27.7522C26.4062 27.5552 28.202 27.4568 29.9993 27.4598H30.0007C31.798 27.4571 33.5938 27.5552 35.3126 27.7522C37.4962 25.1469 39.2585 25.1515 41.2424 25.1472H41.2458L41.2453 25.1445C42.1826 25.1445 45.9319 25.1445 48.5444 33.1651L51.3506 44.1681C53.4301 52.3536 50.6848 52.5538 47.2604 52.561C42.1821 52.3544 39.3703 48.3231 39.3703 44.2924C36.5592 44.7959 33.2798 45.0477 30.0005 45.048H29.999C26.7194 45.048 23.4401 44.7959 20.6292 44.2924C20.6292 48.3231 17.8172 52.3544 12.7391 52.561C9.31476 52.5538 6.5697 52.3538 8.64915 44.1681L11.4561 33.1654C14.0686 25.1448 17.8179 25.1448 18.7552 25.1448L18.7547 25.1445ZM29.9993 31.4478V31.4494C29.9944 31.4547 24.6532 36.8165 23.6929 38.7237L27.1906 38.5705V41.9047C27.1906 42.0608 28.5942 41.9972 29.9993 41.9261H30.0007C31.4053 41.9972 32.8091 42.0608 32.8091 41.9047V38.5705L36.3068 38.7237C35.3463 36.8165 30.0005 31.4494 30.0005 31.4494V31.4478L29.9998 31.4483L29.9993 31.4478Z" fill="#FA5C5C"/>
</svg>
